<svg width="72" height="72" viewBox="0 0 72 72" fill="none" xmlns="http://www.w3.org/2000/svg">
<path opacity="0.4" d="M63.9877 25.3301V47.2787C63.9877 47.7206 63.8404 48.1626 63.4574 48.5456C59.1855 52.8469 51.5845 60.5068 47.2242 64.8966C46.8412 65.309 46.3404 65.4858 45.8395 65.4858H22.3589C14.4338 65.4858 8.01123 59.0632 8.01123 51.1381V25.3301C8.01123 17.405 14.4338 10.9824 22.3589 10.9824H49.64C57.5651 10.9824 63.9877 17.405 63.9877 25.3301Z" fill="#7B5EAC"/>
<path d="M25.0709 19.2014C23.8336 19.2014 22.8613 18.1997 22.8613 16.9918V8.7721C22.8613 7.56418 23.8336 6.5625 25.0709 6.5625C26.3083 6.5625 27.2805 7.56418 27.2805 8.7721V16.9623C27.2805 18.1997 26.3083 19.2014 25.0709 19.2014Z" fill="#7B5EAC"/>
<path d="M46.9293 19.2014C45.6919 19.2014 44.7197 18.1997 44.7197 16.9918V8.7721C44.7197 7.53472 45.7214 6.5625 46.9293 6.5625C48.1667 6.5625 49.1389 7.56418 49.1389 8.7721V16.9623C49.1389 18.1997 48.1667 19.2014 46.9293 19.2014Z" fill="#7B5EAC"/>
<path d="M44.1905 38.1106H22.3302C21.0928 38.1106 20.1206 37.1089 20.1206 35.901C20.1206 34.6931 21.1223 33.6914 22.3302 33.6914H44.1905C45.4279 33.6914 46.4001 34.6931 46.4001 35.901C46.4001 37.1089 45.4279 38.1106 44.1905 38.1106Z" fill="#7B5EAC"/>
<path d="M36.0002 49.0461H22.3302C21.0928 49.0461 20.1206 48.0445 20.1206 46.8365C20.1206 45.5992 21.1223 44.627 22.3302 44.627H36.0002C37.2376 44.627 38.2098 45.6286 38.2098 46.8365C38.2098 48.0445 37.2376 49.0461 36.0002 49.0461Z" fill="#7B5EAC"/>
<path d="M63.9889 47.2722C63.9889 47.7142 63.8416 48.1561 63.4586 48.5391C59.1867 52.8404 51.5857 60.5004 47.2254 64.8901C46.8425 65.3025 46.3416 65.4793 45.8408 65.4793C44.8685 65.4793 43.9258 64.7133 43.9258 63.5938V53.2823C43.9258 48.981 47.579 45.4162 52.0571 45.4162C54.8559 45.3867 58.7448 45.3867 62.0739 45.3867C63.2229 45.3867 63.9889 46.3 63.9889 47.2722Z" fill="#7B5EAC"/>
</svg>
