<svg width="21" height="21" viewBox="0 0 21 21" fill="none" xmlns="http://www.w3.org/2000/svg">
<path d="M19.3 10.708C19.3 10.058 19.2417 9.43301 19.1333 8.83301H10.5V12.3788H15.4333C15.2208 13.5247 14.575 14.4955 13.6042 15.1455V17.4455H16.5667C18.3 15.8497 19.3 13.4997 19.3 10.708Z" fill="#4285F4"/>
<path d="M10.5 19.6662C12.975 19.6662 15.05 18.8454 16.5667 17.4454L13.6042 15.1454C12.7833 15.6954 11.7333 16.0204 10.5 16.0204C8.1125 16.0204 6.09167 14.4079 5.37083 12.2412H2.30833V14.6162C3.81667 17.612 6.91667 19.6662 10.5 19.6662Z" fill="#34A853"/>
<path d="M5.37083 12.2421C5.1875 11.6921 5.08333 11.1046 5.08333 10.5005C5.08333 9.89629 5.1875 9.30879 5.37083 8.75879V6.38379H2.30833C1.66666 7.66117 1.33276 9.07097 1.33333 10.5005C1.33333 11.9796 1.6875 13.3796 2.30833 14.6171L5.37083 12.2421Z" fill="#FBBC05"/>
<path d="M10.5 4.97884C11.8458 4.97884 13.0542 5.44134 14.0042 6.34967L16.6333 3.72051C15.0458 2.24134 12.9708 1.33301 10.5 1.33301C6.91667 1.33301 3.81667 3.38717 2.30833 6.38301L5.37083 8.75801C6.09167 6.59134 8.1125 4.97884 10.5 4.97884Z" fill="#EA4335"/>
</svg>
