<svg width="55" height="56" viewBox="0 0 55 56" fill="none" xmlns="http://www.w3.org/2000/svg">
<path opacity="0.4" d="M15.5608 14.75H30.2268C33.8045 14.75 36.3999 15.6468 38.1038 17.3506C39.8075 19.0544 40.7043 21.6499 40.7043 25.2275V34.3936C40.7043 34.9776 40.6817 35.5286 40.6165 36.0508L40.6145 36.0703C40.3587 39.0733 39.3542 41.2483 37.6663 42.6807C35.9716 44.1186 33.514 44.8711 30.2268 44.8711H29.3108C28.5806 44.8711 27.8818 45.2196 27.4436 45.8037L24.6936 49.4707L24.6926 49.4717C24.1647 50.1788 23.5087 50.4912 22.8938 50.4912C22.2788 50.4912 21.622 50.179 21.094 49.4717V49.4707L18.344 45.8037L18.3411 45.8008L18.2581 45.7012C18.0559 45.4741 17.7861 45.2835 17.5129 45.1455C17.2011 44.9879 16.8307 44.8711 16.4768 44.8711H15.5608C11.9139 44.8711 9.33976 44.4105 7.65942 42.9434C5.9959 41.4907 5.08325 38.9339 5.08325 34.3936V25.2275C5.08325 21.9412 5.84059 19.483 7.28149 17.7881C8.717 16.0996 10.8928 15.0956 13.884 14.8398L13.9036 14.8379C14.4257 14.7726 14.9767 14.75 15.5608 14.75Z" fill="#7B5EAC" stroke="#7B5EAC"/>
<path d="M22.8945 28.5C23.8787 28.5002 24.6855 29.3078 24.6855 30.292C24.6854 31.2793 23.8982 32.0828 22.8945 32.083C21.8907 32.083 21.1027 31.2794 21.1025 30.292C21.1025 29.3077 21.9103 28.5 22.8945 28.5Z" fill="#7B5EAC" stroke="#7B5EAC"/>
<path d="M30.9155 28.5C31.8997 28.5002 32.7065 29.3078 32.7065 30.292C32.7064 31.276 31.8995 32.0828 30.9155 32.083C29.9117 32.083 29.1237 31.2794 29.1235 30.292C29.1235 29.3077 29.9313 28.5 30.9155 28.5Z" fill="#7B5EAC" stroke="#7B5EAC"/>
<path d="M14.8959 32.5833C13.6126 32.5833 12.6042 31.5521 12.6042 30.2917C12.6042 29.0312 13.6355 28 14.8959 28C16.1563 28 17.1876 29.0312 17.1876 30.2917C17.1876 31.5521 16.1563 32.5833 14.8959 32.5833Z" fill="#7B5EAC"/>
<path d="M50.371 16.0611V25.2278C50.371 31.9653 47.2772 35.5861 41.1126 36.1132C41.1814 35.5632 41.2043 34.9903 41.2043 34.3944V25.2278C41.2043 17.9173 37.5376 14.2507 30.2272 14.2507H15.5605C14.9647 14.2507 14.3918 14.2736 13.8418 14.3423C14.3689 8.17775 18.0126 5.08398 24.7272 5.08398H39.3939C46.7043 5.08398 50.371 8.75067 50.371 16.0611Z" fill="#7B5EAC"/>
</svg>
