<svg width="60" height="60" viewBox="0 0 60 60" fill="none" xmlns="http://www.w3.org/2000/svg">
<path d="M30.0249 5.50781C31.8626 5.50781 33.6734 5.90251 35.0308 6.66309L35.0327 6.66406L48.5825 14.1641L48.5864 14.166C49.3971 14.6061 50.1768 15.2636 50.8735 16.0312C51.6062 16.8988 51.4205 18.2817 50.4731 18.9873L50.2739 19.1191L31.0249 30.2686L31.0239 30.2695C30.4084 30.6268 29.6252 30.6311 28.9761 30.2686L9.72607 19.1191C8.60676 18.4676 8.34822 16.9585 9.17334 16.0352L9.17529 16.0312C9.86617 15.2451 10.6463 14.6096 11.4634 14.166L11.4673 14.1641L25.0171 6.66406L25.019 6.66309C26.3763 5.90253 28.1872 5.50783 30.0249 5.50781Z" fill="white" stroke="white"/>
<path d="M6.08105 24.7754C6.1805 23.2551 7.79425 22.3581 9.10254 23.1084V23.1074L27.0576 33.5215H27.0586C27.6709 33.9093 28.0762 34.6041 28.0762 35.3496V52.3994C28.076 53.9461 26.5233 54.9309 25.1699 54.2744H25.1689C22.6023 53.0159 19.1539 51.2071 16.3428 49.7109C14.9376 48.9631 13.6929 48.2936 12.7998 47.8115C12.3533 47.5705 11.9941 47.3762 11.7471 47.2422C11.624 47.1754 11.5285 47.124 11.4639 47.0889C11.4318 47.0714 11.4071 47.0578 11.3906 47.0488C11.3824 47.0443 11.3753 47.0404 11.3711 47.0381L11.3652 47.0352C9.94052 46.2271 8.61343 44.7856 7.64062 43.0938C6.66661 41.3998 6.07617 39.5039 6.07617 37.8242V24.9238L6.08105 24.7754Z" fill="white" stroke="white"/>
<path d="M50.8994 23.1084C52.2497 22.3339 53.9255 23.3145 53.9258 24.9238V37.8242C53.9258 39.5039 53.3353 41.3998 52.3613 43.0938C51.3885 44.7856 50.0614 46.2271 48.6367 47.0352L48.6309 47.0381C48.6267 47.0404 48.6196 47.0443 48.6113 47.0488C48.5948 47.0578 48.5702 47.0714 48.5381 47.0889C48.4735 47.124 48.378 47.1754 48.2549 47.2422C48.0079 47.3762 47.6487 47.5705 47.2021 47.8115C46.309 48.2936 45.0644 48.9631 43.6592 49.7109C41.1988 51.0204 38.2503 52.5695 35.832 53.7793L34.832 54.2744C33.4786 54.9309 31.9259 53.9461 31.9258 52.3994V35.3496C31.9258 34.6506 32.282 33.9962 32.8311 33.5977L32.9434 33.5215L50.8984 23.1074L50.8994 23.1084Z" fill="white" stroke="white"/>
</svg>
