<svg width="201" height="200" viewBox="0 0 201 200" fill="none" xmlns="http://www.w3.org/2000/svg">
<rect x="0.5" width="200" height="200" rx="16" fill="#F3F3F3"/>
<path d="M121.374 110.041L114.853 94.7912C113.666 91.9996 111.895 90.4162 109.874 90.3121C107.874 90.2079 105.937 91.6037 104.458 94.2704L100.499 101.375C99.6659 102.875 98.4784 103.77 97.1867 103.875C95.8742 104 94.5617 103.312 93.4992 101.958L93.0409 101.375C91.5617 99.5204 89.7284 98.6246 87.8534 98.8121C85.9784 98.9996 84.3742 100.291 83.3117 102.395L79.7075 109.583C78.4159 112.187 78.5409 115.208 80.0617 117.666C81.5825 120.125 84.2284 121.604 87.1242 121.604H113.708C116.499 121.604 119.103 120.208 120.645 117.875C122.228 115.541 122.478 112.604 121.374 110.041Z" fill="#7B5EAC"/>
<path d="M90.0209 92.4583C93.9099 92.4583 97.0626 89.3057 97.0626 85.4167C97.0626 81.5277 93.9099 78.375 90.0209 78.375C86.1319 78.375 82.9792 81.5277 82.9792 85.4167C82.9792 89.3057 86.1319 92.4583 90.0209 92.4583Z" fill="#7B5EAC"/>
</svg>
