<svg width="60" height="60" viewBox="0 0 60 60" fill="none" xmlns="http://www.w3.org/2000/svg">
<path d="M48.8922 14.4434C49.0764 14.6684 49.2556 14.895 49.4322 15.124H48.2213L48.8922 14.4434Z" fill="white" stroke="#7B5EAC"/>
<path d="M44.875 10.543C45.104 10.7196 45.3306 10.8988 45.5557 11.083L44.875 11.7539V10.543Z" fill="white" stroke="#7B5EAC"/>
<path d="M54.0285 4.03027C54.5582 3.50054 55.4421 3.50054 55.9719 4.03027C56.5012 4.55991 56.5011 5.44297 55.9719 5.97266L48.966 12.9775C48.3533 12.3083 47.7121 11.6506 47.0285 11.0293L54.0285 4.03027Z" fill="white" stroke="#7B5EAC"/>
<path d="M44.375 7.5C44.375 6.475 43.525 5.625 42.5 5.625C41.5 5.625 40.7 6.425 40.65 7.4C41.95 8.025 43.2 8.725 44.375 9.55V7.5Z" fill="white"/>
<path d="M54.375 17.5C54.375 16.475 53.525 15.625 52.5 15.625H50.425C51.25 16.8 51.975 18.05 52.575 19.35C53.575 19.3 54.375 18.5 54.375 17.5Z" fill="white"/>
<path d="M31.875 36.875H32.625C33.6 36.875 34.375 36 34.375 34.925C34.375 33.575 34 33.375 33.15 33.075L31.875 32.625V36.875Z" fill="white"/>
<path d="M52.6 19.35C52.575 19.35 52.55 19.375 52.5 19.375H42.5C42.25 19.375 42.025 19.325 41.775 19.225C41.325 19.025 40.95 18.675 40.75 18.2C40.675 17.975 40.625 17.75 40.625 17.5V7.5C40.625 7.475 40.65 7.45 40.65 7.4C37.4 5.875 33.8 5 30 5C16.2 5 5 16.2 5 30C5 43.8 16.2 55 30 55C43.8 55 55 43.8 55 30C55 26.2 54.125 22.6 52.6 19.35ZM34.375 29.55C35.975 30.1 38.125 31.275 38.125 34.95C38.125 38.075 35.65 40.65 32.625 40.65H31.875V41.275C31.875 42.3 31.025 43.15 30 43.15C28.975 43.15 28.125 42.3 28.125 41.275V40.65H27.925C24.6 40.65 21.875 37.85 21.875 34.4C21.875 33.35 22.725 32.5 23.75 32.5C24.775 32.5 25.625 33.35 25.625 34.375C25.625 35.75 26.65 36.875 27.925 36.875H28.125V31.325L25.625 30.45C24.025 29.9 21.875 28.725 21.875 25.05C21.875 21.925 24.35 19.35 27.375 19.35H28.125V18.75C28.125 17.725 28.975 16.875 30 16.875C31.025 16.875 31.875 17.725 31.875 18.75V19.375H32.075C35.4 19.375 38.125 22.175 38.125 25.625C38.125 26.65 37.275 27.5 36.25 27.5C35.225 27.5 34.375 26.65 34.375 25.625C34.375 24.25 33.35 23.125 32.075 23.125H31.875V28.675L34.375 29.55Z" fill="white"/>
<path d="M25.625 25.075C25.625 26.425 26 26.625 26.85 26.925L28.125 27.375V23.125H27.375C26.425 23.125 25.625 24 25.625 25.075Z" fill="white"/>
</svg>
