<svg width="60" height="60" viewBox="0 0 60 60" fill="none" xmlns="http://www.w3.org/2000/svg">
<path d="M40.625 56.25C43.0412 56.25 45 54.2912 45 51.875C45 49.4588 43.0412 47.5 40.625 47.5C38.2088 47.5 36.25 49.4588 36.25 51.875C36.25 54.2912 38.2088 56.25 40.625 56.25Z" fill="white"/>
<path d="M20.625 56.25C23.0412 56.25 25 54.2912 25 51.875C25 49.4588 23.0412 47.5 20.625 47.5C18.2088 47.5 16.25 49.4588 16.25 51.875C16.25 54.2912 18.2088 56.25 20.625 56.25Z" fill="white"/>
<path d="M12.1 9.85L11.6 15.975C11.5 17.15 12.425 18.125 13.6 18.125H51.875C52.925 18.125 53.8 17.325 53.875 16.275C54.2 11.85 50.825 8.25 46.4 8.25H15.675C15.425 7.15 14.925 6.1 14.15 5.225C12.9 3.9 11.15 3.125 9.35 3.125H5C3.975 3.125 3.125 3.975 3.125 5C3.125 6.025 3.975 6.875 5 6.875H9.35C10.125 6.875 10.85 7.2 11.375 7.75C11.9 8.325 12.15 9.075 12.1 9.85Z" fill="white"/>
<path d="M51.275 21.875H12.925C11.875 21.875 11.025 22.675 10.925 23.7L10.025 34.575C9.675 38.85 13.025 42.5 17.3 42.5H45.1C48.85 42.5 52.15 39.425 52.425 35.675L53.25 24C53.35 22.85 52.45 21.875 51.275 21.875Z" fill="white"/>
</svg>
